{"title":"Bull Durham 1988 DvDrip XviD AC3 5.1 greenbud1969","uid":10519407,"size":1497272141,"categoryP":"video","categoryS":"movies","magnet":"?xt=urn:btih:18160cf946cb88d1acd3687e6521c490a0c7b256&amp;dn=Bull+Durham+1988+DvDrip+XviD+AC3+5.1+greenbud1969&amp;tr=udp%3A%2F%2Ftracker.openbittorrent.com%3A80&amp;tr=udp%3A%2F%2Fopen.demonii.com%3A1337&amp;tr=udp%3A%2F%2Ftracker.coppersurfer.tk%3A6969&amp;tr=udp%3A%2F%2Fexodus.desync.com%3A6969","seeders":1,"leechers":1,"uploader":"greenbud1969","files":-1,"time":1404953207,"description":"General\nComplete name                            : Bull Durham 1988 DvDrip XviD AC3 5.1 greenbud1969\nFormat                                   : AVI\nFormat/Info                              : Audio Video Interleave\nFile size                                : 1.37 GiB\nDuration                                 : 1h 47mn\nOverall bit rate                         : 1 814 Kbps\nWriting application                      : VirtualDubMod 1.5.4.1 (build 2178/release)\nWriting library                          : VirtualDubMod build 2178/release\n\nVideo\nID                                       : 0\nFormat                                   : MPEG-4 Visual\nFormat profile                           : Advanced Simple@L5\nFormat settings, BVOP                    : 1\nFormat settings, QPel                    : No\nFormat settings, GMC                     : No warppoints\nFormat settings, Matrix                  : Custom\nCodec ID                                 : XVID\nCodec ID/Hint                            : XviD\nDuration                                 : 1h 47mn\nBit rate                                 : 1 360 Kbps\nWidth                                    : 720 pixels\nHeight                                   : 400 pixels\nDisplay aspect ratio                     : 16:9\nFrame rate                               : 23.976 fps\nColor space                              : YUV\nChroma subsampling                       : 4:2:0\nBit depth                                : 8 bits\nScan type                                : Progressive\nCompression mode                         : Lossy\nBits/(Pixel*Frame)                       : 0.197\nStream size                              : 1.02 GiB (75%)\nWriting library                          : XviD 64\n\nAudio\nID                                       : 1\nFormat                                   : AC-3\nFormat/Info                              : Audio Coding 3\nMode extension                           : CM (complete main)\nFormat settings, Endianness              : Big\nCodec ID                                 : 2000\nDuration                                 : 1h 47mn\nBit rate mode                            : Constant\nBit rate                                 : 448 Kbps\nChannel(s)                               : 6 channels\nChannel positions                        : Front: L C R, Side: L R, LFE\nSampling rate                            : 48.0 KHz\nBit depth                                : 16 bits\nCompression mode                         : Lossy\nStream size                              : 346 MiB (25%)\nAlignment                                : Split accross interleaves\nInterleave, duration                     : 96 ms (2.30 video frames)\nInterleave, preload duration             : 96 ms\nLanguage                                 : English\n\n\nIMDb Link:  &lt;a href=&quot; http://www.imdb.com/title/tt0094812/&quot; rel=&quot;nofollow&quot; target=&quot;_NEW&quot;&gt; http://www.imdb.com/title/tt0094812/&lt;/a&gt;\n\n\nNotes\n\nIf your want to convert this movie or any of my other releases I recommend using ConvertXtoDVD or you can burn as a data disc with any programs such as CyberLink Power2Go, Roxio or Nero \n\n\nAll stand-alone divx players compatible\n\n\nSample &amp; Optional English .srt Included\n\n\nThumbnail\n\n  &lt;a href=&quot;\nhttp://i.imgur.com/rBj0rEI.jpg&quot; rel=&quot;nofollow&quot; target=&quot;_NEW&quot;&gt;\nhttp://i.imgur.com/rBj0rEI.jpg&lt;/a&gt;\n\n\nGREETZ\n\n\nBlackjesus, Hive-CM8, ViP3R, THC, SANTi, CRYS, TODE, ViCKY, AQOS, EVO, playXD, LRT, FUM, AFG and respect to all pirate groups and encoders past and present. Sharing is caring.\n\n\nALSO IF YOU HAVE ANY REQUESTS DON'T HESITATE TO ASK. I MIGHT HAVE WHAT YOUR LOOKING FOR. YOU NEVER KNOW IT NEVER HURTS TO ASK. EMAIL ME AT greenbud1969 AT hotmail dot com OR LEAVE REQUESTS IN COMMENTS.","torrent":{"xt":"urn:btih:18160cf946cb88d1acd3687e6521c490a0c7b256","amp;dn":"Bull+Durham+1988+DvDrip+XviD+AC3+5.1+greenbud1969","amp;tr":["udp%3A%2F%2Ftracker.openbittorrent.com%3A80","udp%3A%2F%2Fopen.demonii.com%3A1337","udp%3A%2F%2Ftracker.coppersurfer.tk%3A6969","udp%3A%2F%2Fexodus.desync.com%3A6969"],"infoHash":"18160cf946cb88d1acd3687e6521c490a0c7b256","infoHashBuffer":{"type":"Buffer","data":[24,22,12,249,70,203,136,209,172,211,104,126,101,33,196,144,160,199,178,86]},"announce":[],"urlList":[]}}